<?xml version="1.0" encoding="utf-8"?>
<!-- Generator: Adobe Illustrator 28.0.0, SVG Export Plug-In . SVG Version: 6.00 Build 0)  -->
<svg version="1.1" id="Layer_1" xmlns="http://www.w3.org/2000/svg" xmlns:xlink="http://www.w3.org/1999/xlink" x="0px" y="0px"
	 viewBox="0 0 296.15 51.92" style="enable-background:new 0 0 296.15 51.92;" xml:space="preserve">
<style type="text/css">
	.st0{fill:#E2B225;}
	.st1{fill:#6C8F4E;}
</style>
<g>
	<path class="st0" d="M4.18,20.18c0-2.48-0.05-4.52-0.2-6.5h3.9l0.2,3.87h0.15c1.37-2.28,3.65-4.42,7.7-4.42
		c3.34,0,5.87,1.99,6.94,4.82h0.1c0.76-1.34,1.72-2.38,2.73-3.13c1.47-1.09,3.09-1.69,5.42-1.69c3.24,0,8.05,2.09,8.05,10.43v14.15
		h-4.36V24.1c0-4.62-1.72-7.4-5.32-7.4c-2.53,0-4.51,1.84-5.27,3.97c-0.2,0.6-0.35,1.39-0.35,2.18v14.85h-4.36v-14.4
		c0-3.82-1.72-6.6-5.11-6.6c-2.79,0-4.81,2.18-5.52,4.37c-0.25,0.65-0.35,1.39-0.35,2.13v14.5H4.18V20.18z"/>
	<path class="st0" d="M59.99,37.71l-0.35-3.03h-0.15c-1.37,1.89-4,3.58-7.5,3.58c-4.96,0-7.5-3.43-7.5-6.9
		c0-5.81,5.27-8.99,14.74-8.94v-0.5c0-1.99-0.56-5.56-5.57-5.56c-2.28,0-4.66,0.7-6.38,1.79l-1.01-2.88
		c2.03-1.29,4.96-2.13,8.05-2.13c7.5,0,9.32,5.01,9.32,9.83v8.99c0,2.09,0.1,4.12,0.41,5.76H59.99z M59.33,25.44
		c-4.86-0.1-10.38,0.74-10.38,5.41c0,2.83,1.92,4.17,4.2,4.17c3.19,0,5.22-1.99,5.93-4.02c0.15-0.45,0.25-0.94,0.25-1.39V25.44z"/>
	<path class="st0" d="M75.99,6.77v6.9h6.38V17h-6.38v12.96c0,2.98,0.86,4.67,3.34,4.67c1.17,0,2.03-0.15,2.58-0.3l0.2,3.28
		c-0.86,0.35-2.23,0.6-3.95,0.6c-2.08,0-3.75-0.65-4.81-1.84c-1.27-1.29-1.72-3.43-1.72-6.26V17h-3.8v-3.33h3.8V7.92L75.99,6.77z"/>
	<path class="st0" d="M92.75,6.77v6.9h6.38V17h-6.38v12.96c0,2.98,0.86,4.67,3.34,4.67c1.17,0,2.03-0.15,2.58-0.3l0.2,3.28
		c-0.86,0.35-2.23,0.6-3.95,0.6c-2.08,0-3.75-0.65-4.81-1.84c-1.27-1.29-1.72-3.43-1.72-6.26V17h-3.8v-3.33h3.8V7.92L92.75,6.77z"/>
	<path class="st0" d="M106.32,26.49c0.1,5.91,3.95,8.34,8.41,8.34c3.19,0,5.12-0.55,6.79-1.24l0.76,3.13
		c-1.57,0.7-4.25,1.49-8.15,1.49c-7.55,0-12.05-4.87-12.05-12.12c0-7.25,4.36-12.96,11.5-12.96c8,0,10.13,6.9,10.13,11.32
		c0,0.89-0.1,1.59-0.15,2.04H106.32z M119.39,23.36c0.05-2.78-1.16-7.1-6.18-7.1c-4.51,0-6.48,4.07-6.84,7.1H119.39z"/>
	<path class="st0" d="M129.21,21.17c0-2.83-0.05-5.26-0.2-7.5h3.9l0.15,4.72h0.2c1.11-3.23,3.8-5.26,6.79-5.26
		c0.51,0,0.86,0.05,1.27,0.15v4.12c-0.46-0.1-0.91-0.15-1.52-0.15c-3.14,0-5.37,2.33-5.98,5.61c-0.1,0.6-0.2,1.29-0.2,2.04v12.81
		h-4.41V21.17z"/>
	<path class="st1" d="M159.09,37.71l-0.35-3.03h-0.15c-1.37,1.89-4,3.58-7.5,3.58c-4.96,0-7.5-3.43-7.5-6.9
		c0-5.81,5.27-8.99,14.74-8.94v-0.5c0-1.99-0.56-5.56-5.57-5.56c-2.28,0-4.66,0.7-6.38,1.79l-1.01-2.88
		c2.03-1.29,4.96-2.13,8.05-2.13c7.5,0,9.32,5.01,9.32,9.83v8.99c0,2.09,0.1,4.12,0.41,5.76H159.09z M158.44,25.44
		c-4.86-0.1-10.38,0.74-10.38,5.41c0,2.83,1.92,4.17,4.2,4.17c3.19,0,5.22-1.99,5.93-4.02c0.15-0.45,0.25-0.94,0.25-1.39V25.44z"/>
	<path class="st1" d="M169.93,20.18c0-2.48-0.05-4.52-0.2-6.5h3.95l0.25,3.97h0.1c1.22-2.28,4.05-4.52,8.1-4.52
		c3.39,0,8.66,1.99,8.66,10.23v14.35h-4.46V23.85c0-3.87-1.47-7.1-5.67-7.1c-2.94,0-5.22,2.04-5.98,4.47
		c-0.2,0.55-0.3,1.29-0.3,2.04v14.45h-4.46V20.18z"/>
	<path class="st1" d="M219.21,2.45V31.5c0,2.14,0.05,4.57,0.2,6.21h-4l-0.2-4.17h-0.1c-1.37,2.68-4.36,4.72-8.36,4.72
		c-5.93,0-10.48-4.92-10.48-12.21c-0.05-7.99,5.01-12.91,10.99-12.91c3.75,0,6.28,1.74,7.39,3.67h0.1V2.45H219.21z M214.75,23.46
		c0-0.55-0.05-1.29-0.2-1.84c-0.66-2.78-3.09-5.06-6.43-5.06c-4.61,0-7.34,3.97-7.34,9.29c0,4.87,2.43,8.89,7.24,8.89
		c2.99,0,5.72-1.94,6.53-5.21c0.15-0.6,0.2-1.19,0.2-1.89V23.46z"/>
	<path class="st0" d="M247.72,13.68c-0.1,1.74-0.2,3.67-0.2,6.6v13.95c0,5.51-1.11,8.89-3.5,10.97c-2.38,2.18-5.82,2.88-8.91,2.88
		c-2.94,0-6.18-0.7-8.15-1.99l1.11-3.33c1.62,0.99,4.15,1.89,7.19,1.89c4.56,0,7.9-2.33,7.9-8.39v-2.68h-0.1
		c-1.37,2.23-4,4.02-7.8,4.02c-6.08,0-10.43-5.06-10.43-11.72c0-8.14,5.42-12.76,11.04-12.76c4.25,0,6.58,2.18,7.65,4.17h0.1
		l0.2-3.62H247.72z M243.11,23.16c0-0.75-0.05-1.39-0.25-1.99c-0.81-2.53-2.99-4.62-6.23-4.62c-4.25,0-7.29,3.53-7.29,9.09
		c0,4.72,2.43,8.64,7.24,8.64c2.73,0,5.22-1.69,6.18-4.47c0.25-0.75,0.35-1.59,0.35-2.33V23.16z"/>
	<path class="st0" d="M268.48,37.71l-0.35-3.03h-0.15c-1.37,1.89-4,3.58-7.5,3.58c-4.96,0-7.5-3.43-7.5-6.9
		c0-5.81,5.27-8.99,14.74-8.94v-0.5c0-1.99-0.56-5.56-5.57-5.56c-2.28,0-4.66,0.7-6.38,1.79l-1.01-2.88
		c2.03-1.29,4.96-2.13,8.05-2.13c7.5,0,9.32,5.01,9.32,9.83v8.99c0,2.09,0.1,4.12,0.41,5.76H268.48z M267.82,25.44
		c-4.86-0.1-10.38,0.74-10.38,5.41c0,2.83,1.92,4.17,4.2,4.17c3.19,0,5.22-1.99,5.93-4.02c0.15-0.45,0.25-0.94,0.25-1.39V25.44z"/>
	<path class="st0" d="M278.71,33.24c1.32,0.84,3.65,1.74,5.88,1.74c3.24,0,4.76-1.59,4.76-3.57c0-2.09-1.27-3.23-4.56-4.42
		c-4.41-1.54-6.48-3.92-6.48-6.8c0-3.87,3.19-7.05,8.46-7.05c2.48,0,4.66,0.69,6.03,1.49l-1.11,3.18c-0.96-0.6-2.73-1.39-5.01-1.39
		c-2.63,0-4.1,1.49-4.1,3.28c0,1.99,1.47,2.88,4.66,4.07c4.25,1.59,6.43,3.67,6.43,7.25c0,4.22-3.34,7.2-9.17,7.2
		c-2.68,0-5.17-0.65-6.89-1.64L278.71,33.24z"/>
</g>
<g>
</g>
<g>
</g>
<g>
</g>
<g>
</g>
<g>
</g>
<g>
</g>
</svg>
